<svg width="37" height="37" viewBox="0 0 37 37" fill="none" xmlns="http://www.w3.org/2000/svg">
<g clip-path="url(#clip0_26_58)">
<path d="M30.8333 0H6.16667C4.53116 0 2.96265 0.649701 1.80617 1.80617C0.649701 2.96265 0 4.53116 0 6.16667L0 24.6667C0 26.3022 0.649701 27.8707 1.80617 29.0272C2.96265 30.1836 4.53116 30.8333 6.16667 30.8333H10.6375L17.4995 36.6346C17.7778 36.8702 18.1307 36.9995 18.4954 36.9995C18.8601 36.9995 19.2129 36.8702 19.4913 36.6346L26.3625 30.8333H30.8333C32.4688 30.8333 34.0373 30.1836 35.1938 29.0272C36.3503 27.8707 37 26.3022 37 24.6667V6.16667C37 4.53116 36.3503 2.96265 35.1938 1.80617C34.0373 0.649701 32.4688 0 30.8333 0V0ZM10.7917 7.70833H18.5C18.9089 7.70833 19.301 7.87076 19.5901 8.15988C19.8792 8.449 20.0417 8.84112 20.0417 9.25C20.0417 9.65888 19.8792 10.051 19.5901 10.3401C19.301 10.6292 18.9089 10.7917 18.5 10.7917H10.7917C10.3828 10.7917 9.99066 10.6292 9.70154 10.3401C9.41243 10.051 9.25 9.65888 9.25 9.25C9.25 8.84112 9.41243 8.449 9.70154 8.15988C9.99066 7.87076 10.3828 7.70833 10.7917 7.70833ZM26.2083 23.125H10.7917C10.3828 23.125 9.99066 22.9626 9.70154 22.6735C9.41243 22.3843 9.25 21.9922 9.25 21.5833C9.25 21.1745 9.41243 20.7823 9.70154 20.4932C9.99066 20.2041 10.3828 20.0417 10.7917 20.0417H26.2083C26.6172 20.0417 27.0093 20.2041 27.2985 20.4932C27.5876 20.7823 27.75 21.1745 27.75 21.5833C27.75 21.9922 27.5876 22.3843 27.2985 22.6735C27.0093 22.9626 26.6172 23.125 26.2083 23.125ZM26.2083 16.9583H10.7917C10.3828 16.9583 9.99066 16.7959 9.70154 16.5068C9.41243 16.2177 9.25 15.8255 9.25 15.4167C9.25 15.0078 9.41243 14.6157 9.70154 14.3265C9.99066 14.0374 10.3828 13.875 10.7917 13.875H26.2083C26.6172 13.875 27.0093 14.0374 27.2985 14.3265C27.5876 14.6157 27.75 15.0078 27.75 15.4167C27.75 15.8255 27.5876 16.2177 27.2985 16.5068C27.0093 16.7959 26.6172 16.9583 26.2083 16.9583Z" fill="#F26440"/>
</g>
<defs>
<clipPath id="clip0_26_58">
<rect width="37" height="37" fill="white"/>
</clipPath>
</defs>
</svg>
