<svg width="70" height="70" viewBox="0 0 70 70" fill="none" xmlns="http://www.w3.org/2000/svg">
<rect width="70" height="70" rx="16" fill="#F4FAF8"/>
<g clip-path="url(#clip0_62_12)">
<path d="M46.8333 16H22.1667C20.5312 16 18.9626 16.6497 17.8062 17.8062C16.6497 18.9626 16 20.5312 16 22.1667V40.6667C16 42.3022 16.6497 43.8707 17.8062 45.0272C18.9626 46.1836 20.5312 46.8333 22.1667 46.8333H26.6375L33.4995 52.6346C33.7778 52.8702 34.1307 52.9995 34.4954 52.9995C34.8601 52.9995 35.2129 52.8702 35.4913 52.6346L42.3625 46.8333H46.8333C48.4688 46.8333 50.0373 46.1836 51.1938 45.0272C52.3503 43.8707 53 42.3022 53 40.6667V22.1667C53 20.5312 52.3503 18.9626 51.1938 17.8062C50.0373 16.6497 48.4688 16 46.8333 16V16ZM26.7917 23.7083H34.5C34.9089 23.7083 35.301 23.8708 35.5901 24.1599C35.8792 24.449 36.0417 24.8411 36.0417 25.25C36.0417 25.6589 35.8792 26.051 35.5901 26.3401C35.301 26.6292 34.9089 26.7917 34.5 26.7917H26.7917C26.3828 26.7917 25.9907 26.6292 25.7015 26.3401C25.4124 26.051 25.25 25.6589 25.25 25.25C25.25 24.8411 25.4124 24.449 25.7015 24.1599C25.9907 23.8708 26.3828 23.7083 26.7917 23.7083V23.7083ZM42.2083 39.125H26.7917C26.3828 39.125 25.9907 38.9626 25.7015 38.6735C25.4124 38.3843 25.25 37.9922 25.25 37.5833C25.25 37.1745 25.4124 36.7823 25.7015 36.4932C25.9907 36.2041 26.3828 36.0417 26.7917 36.0417H42.2083C42.6172 36.0417 43.0093 36.2041 43.2985 36.4932C43.5876 36.7823 43.75 37.1745 43.75 37.5833C43.75 37.9922 43.5876 38.3843 43.2985 38.6735C43.0093 38.9626 42.6172 39.125 42.2083 39.125ZM42.2083 32.9583H26.7917C26.3828 32.9583 25.9907 32.7959 25.7015 32.5068C25.4124 32.2177 25.25 31.8255 25.25 31.4167C25.25 31.0078 25.4124 30.6157 25.7015 30.3265C25.9907 30.0374 26.3828 29.875 26.7917 29.875H42.2083C42.6172 29.875 43.0093 30.0374 43.2985 30.3265C43.5876 30.6157 43.75 31.0078 43.75 31.4167C43.75 31.8255 43.5876 32.2177 43.2985 32.5068C43.0093 32.7959 42.6172 32.9583 42.2083 32.9583Z" fill="#F26440"/>
</g>
<defs>
<clipPath id="clip0_62_12">
<rect width="37" height="37" fill="white" transform="translate(16 16)"/>
</clipPath>
</defs>
</svg>
