<svg width="34" height="34" viewBox="0 0 34 34" fill="none" xmlns="http://www.w3.org/2000/svg">
<g clip-path="url(#clip0_32_78)">
<path d="M34 17.1035C34 25.5879 27.7752 32.6217 19.6492 33.8981V22.0505H23.6003L24.3525 17.1488H19.6492V13.9684C19.6492 12.6268 20.3065 11.3207 22.4117 11.3207H24.5494V7.14718C24.5494 7.14718 22.6086 6.81568 20.7542 6.81568C16.881 6.81568 14.3508 9.1631 14.3508 13.4117V17.1474H10.0456V22.0491H14.3508V33.8967C6.22625 32.6188 0 25.5865 0 17.1035C0 7.71527 7.61175 0.103516 17 0.103516C26.3882 0.103516 34 7.71385 34 17.1035Z" fill="#7D7D7D"/>
</g>
<defs>
<clipPath id="clip0_32_78">
<rect width="34" height="34" fill="white"/>
</clipPath>
</defs>
</svg>
