<svg width="38" height="38" viewBox="0 0 38 38" fill="none" xmlns="http://www.w3.org/2000/svg">
<g clip-path="url(#clip0_26_68)">
<path d="M19 23.7382C16.3767 23.7382 14.25 25.8648 14.25 28.4882V37.9882H23.75V28.4882C23.75 25.8648 21.6233 23.7382 19 23.7382Z" fill="#F26440"/>
<path d="M26.9167 28.4882V37.9882H33.25C35.8733 37.9882 38 35.8615 38 33.2382V18.7966C38.0004 17.9741 37.6807 17.1836 37.1086 16.5926L23.6534 2.04649C21.2793 -0.522222 17.2724 -0.679937 14.7037 1.69417C14.5817 1.80698 14.4641 1.92447 14.3514 2.04649L0.919942 16.5879C0.330496 17.1813 -0.000222544 17.9839 1.12355e-07 18.8204V33.2382C1.12355e-07 35.8615 2.12666 37.9882 4.75 37.9882H11.0833V28.4882C11.1129 24.1707 14.5988 20.645 18.8075 20.5435C23.157 20.4386 26.8835 24.0243 26.9167 28.4882Z" fill="#F26440"/>
<path d="M19 23.7382C16.3767 23.7382 14.25 25.8648 14.25 28.4882V37.9882H23.75V28.4882C23.75 25.8648 21.6233 23.7382 19 23.7382Z" fill="#F26440"/>
</g>
<defs>
<clipPath id="clip0_26_68">
<rect width="38" height="38" fill="white"/>
</clipPath>
</defs>
</svg>
