<svg width="34" height="34" viewBox="0 0 34 34" fill="none" xmlns="http://www.w3.org/2000/svg">
<g clip-path="url(#clip0_32_84)">
<path d="M32.5862 30.5773H32.9078L32.2915 29.6452C32.6684 29.6452 32.8681 29.4057 32.8709 29.1125C32.8709 29.1012 32.8709 29.0884 32.8695 29.0771C32.8695 28.6776 32.6287 28.4863 32.1343 28.4863H31.3353V30.5773H31.6356V29.6664H32.0053L32.5862 30.5773ZM31.9841 29.4298H31.6356V28.7229H32.0776C32.3057 28.7229 32.5664 28.7597 32.5664 29.0587C32.5664 29.4015 32.3029 29.4298 31.9827 29.4298" fill="#7D7D7D"/>
<path d="M24.4956 27.0202H20.2357V20.3491C20.2357 18.7582 20.2073 16.7111 18.02 16.7111C15.8015 16.7111 15.4615 18.4437 15.4615 20.2344V27.0202H11.203V13.3012H15.2929V15.1754H15.3496C16.184 13.7503 17.7338 12.8989 19.3843 12.9598C23.7023 12.9598 24.497 15.8002 24.497 19.4934L24.4956 27.0202ZM6.39625 11.4255C5.03058 11.4255 3.92417 10.3191 3.92417 8.95344C3.92417 7.58777 5.03058 6.48136 6.39625 6.48136C7.76192 6.48136 8.86833 7.58777 8.86833 8.95344C8.86833 10.3191 7.76192 11.4255 6.39625 11.4255ZM8.5255 27.0202H4.26133V13.3012H8.5255V27.0202ZM26.6192 2.52602H2.12075C0.963333 2.51327 0.0141667 3.44119 0 4.59861V29.1976C0.0141667 30.3564 0.963333 31.2844 2.12075 31.2716H26.6192C27.7794 31.2858 28.7328 30.3579 28.7484 29.1976V4.59719C28.7314 3.43694 27.778 2.50902 26.6192 2.52461" fill="#7D7D7D"/>
<path d="M32.0209 27.5557C30.9386 27.5656 30.0688 28.4524 30.0801 29.5347C30.09 30.6171 30.9768 31.4869 32.0592 31.4756C33.1415 31.4657 34.0113 30.5788 34 29.4965C33.9901 28.4283 33.1259 27.5656 32.0592 27.5557H32.0209ZM32.0663 31.2503C31.1171 31.2659 30.2898 30.5108 30.2742 29.5617C30.2586 28.6125 31.0151 27.8305 31.9643 27.8149C32.9134 27.7993 33.6954 28.5558 33.711 29.505C33.711 29.5149 33.711 29.5234 33.711 29.5333C33.7308 30.4612 32.9942 31.2305 32.0663 31.2503H32.0223H32.0663Z" fill="#7D7D7D"/>
</g>
<defs>
<clipPath id="clip0_32_84">
<rect width="34" height="34" fill="white"/>
</clipPath>
</defs>
</svg>
