<svg width="51" height="51" viewBox="0 0 51 51" fill="none" xmlns="http://www.w3.org/2000/svg">
<rect width="51" height="51" rx="12" fill="#F4FAF8"/>
<path d="M35.0906 27.3652C34.4158 26.7231 33.5198 26.3655 32.5884 26.3668C31.657 26.3681 30.762 26.7282 30.089 27.3722L27.8617 29.2494C26.0437 28.4969 24.3922 27.3926 23.0021 25.9999C21.612 24.6073 20.5106 22.9537 19.7611 21.1341L21.6308 18.9133C22.273 18.2389 22.6318 17.3436 22.6331 16.4122C22.6344 15.4809 22.2781 14.5845 21.6379 13.9083C21.6379 13.9083 19.4736 11.0996 19.4374 11.0634C18.7707 10.3922 17.8667 10.0103 16.9208 10.0002C15.9749 9.99014 15.063 10.3527 14.3821 11.0096L13.0383 12.1784C4.01797 21.7746 27.295 45.0673 36.8773 35.9059L37.9431 34.6786C38.6199 33.9995 39 33.0796 39 32.1206C39 31.1617 38.6199 30.2418 37.9431 29.5626C37.9045 29.5311 35.0906 27.3664 35.0906 27.3664V27.3652Z" fill="#F26440"/>
</svg>
