<svg width="38" height="38" viewBox="0 0 38 38" fill="none" xmlns="http://www.w3.org/2000/svg">
<g clip-path="url(#clip0_26_60)">
<path d="M36.4166 17.4167C36.4166 13.9238 33.5761 11.0833 30.0833 11.0833V7.91667C30.0833 3.55142 26.5319 0 22.1666 0H15.8333C11.4681 0 7.91665 3.55142 7.91665 7.91667V11.0833C4.42381 11.0833 1.58331 13.9238 1.58331 17.4167V26.125C1.58331 28.3084 3.35823 30.0833 5.54165 30.0833H17.4166V34.8333H11.0833C10.2093 34.8333 9.49998 35.5411 9.49998 36.4167C9.49998 37.2923 10.2093 38 11.0833 38H26.9166C27.7906 38 28.5 37.2923 28.5 36.4167C28.5 35.5411 27.7906 34.8333 26.9166 34.8333H20.5833V30.0833H32.4583C34.6417 30.0833 36.4166 28.3084 36.4166 26.125V17.4167ZM5.54165 22.1667C5.2709 22.1667 5.00648 22.1952 4.74998 22.2474V17.4167C4.74998 15.6702 6.17023 14.25 7.91665 14.25V19H30.0833V14.25C31.8297 14.25 33.25 15.6702 33.25 17.4167V22.2474C32.9935 22.1952 32.7291 22.1667 32.4583 22.1667H5.54165Z" fill="#F26440"/>
</g>
<defs>
<clipPath id="clip0_26_60">
<rect width="38" height="38" fill="white"/>
</clipPath>
</defs>
</svg>
