<svg width="70" height="70" viewBox="0 0 70 70" fill="none" xmlns="http://www.w3.org/2000/svg">
<rect width="70" height="70" rx="16" fill="#F4FAF8"/>
<g clip-path="url(#clip0_62_10)">
<path d="M52.4166 33.4167C52.4166 29.9238 49.5761 27.0833 46.0833 27.0833V23.9167C46.0833 19.5514 42.5319 16 38.1666 16H31.8333C27.4681 16 23.9166 19.5514 23.9166 23.9167V27.0833C20.4238 27.0833 17.5833 29.9238 17.5833 33.4167V42.125C17.5833 44.3084 19.3582 46.0833 21.5416 46.0833H33.4166V50.8333H27.0833C26.2093 50.8333 25.5 51.5411 25.5 52.4167C25.5 53.2923 26.2093 54 27.0833 54H42.9166C43.7906 54 44.5 53.2923 44.5 52.4167C44.5 51.5411 43.7906 50.8333 42.9166 50.8333H36.5833V46.0833H48.4583C50.6417 46.0833 52.4166 44.3084 52.4166 42.125V33.4167ZM21.5416 38.1667C21.2709 38.1667 21.0065 38.1952 20.75 38.2474V33.4167C20.75 31.6703 22.1702 30.25 23.9166 30.25V35H46.0833V30.25C47.8297 30.25 49.25 31.6703 49.25 33.4167V38.2474C48.9935 38.1952 48.7291 38.1667 48.4583 38.1667H21.5416Z" fill="#F26440"/>
</g>
<defs>
<clipPath id="clip0_62_10">
<rect width="38" height="38" fill="white" transform="translate(16 16)"/>
</clipPath>
</defs>
</svg>
