<svg width="51" height="51" viewBox="0 0 51 51" fill="none" xmlns="http://www.w3.org/2000/svg">
<rect width="51" height="51" rx="12" fill="#F4FAF8"/>
<g clip-path="url(#clip0_32_93)">
<path d="M38.9502 19.542L29.8307 27.96C28.8138 28.8962 27.4362 29.422 26 29.422C24.5638 29.422 23.1862 28.8962 22.1693 27.96L13.0498 19.542C13.0347 19.7 13 19.843 13 20V32C13.0017 33.3256 13.573 34.5964 14.5884 35.5338C15.6039 36.4711 16.9806 36.9984 18.4167 37H33.5833C35.0194 36.9984 36.3961 36.4711 37.4116 35.5338C38.427 34.5964 38.9983 33.3256 39 32V20C39 19.843 38.9653 19.7 38.9502 19.542Z" fill="#F26440"/>
<path d="M28.2988 26.546L38.194 17.411C37.7146 16.6773 37.0386 16.07 36.231 15.6477C35.4234 15.2254 34.5115 15.0023 33.5833 15H18.4167C17.4885 15.0023 16.5766 15.2254 15.769 15.6477C14.9614 16.07 14.2854 16.6773 13.806 17.411L23.7012 26.546C24.3117 27.1073 25.1383 27.4225 26 27.4225C26.8617 27.4225 27.6883 27.1073 28.2988 26.546Z" fill="#F26440"/>
</g>
<defs>
<clipPath id="clip0_32_93">
<rect width="26" height="24" fill="white" transform="translate(13 14)"/>
</clipPath>
</defs>
</svg>
