<svg width="70" height="70" viewBox="0 0 70 70" fill="none" xmlns="http://www.w3.org/2000/svg">
<rect width="70" height="70" rx="16" fill="#F4FAF8"/>
<g clip-path="url(#clip0_62_11)">
<path d="M35 39.7382C32.3767 39.7382 30.25 41.8648 30.25 44.4882V53.9882H39.75V44.4882C39.75 41.8648 37.6233 39.7382 35 39.7382Z" fill="#F26440"/>
<path d="M42.9167 44.4882V53.9882H49.25C51.8733 53.9882 54 51.8615 54 49.2382V34.7966C54.0004 33.9741 53.6807 33.1836 53.1086 32.5926L39.6534 18.0465C37.2793 15.4778 33.2724 15.3201 30.7037 17.6942C30.5817 17.807 30.4641 17.9245 30.3514 18.0465L16.9199 32.5879C16.3305 33.1813 15.9998 33.9839 16 34.8204V49.2382C16 51.8615 18.1267 53.9882 20.75 53.9882H27.0833V44.4882C27.1129 40.1707 30.5988 36.645 34.8075 36.5435C39.157 36.4386 42.8835 40.0243 42.9167 44.4882Z" fill="#F26440"/>
<path d="M35 39.7382C32.3767 39.7382 30.25 41.8648 30.25 44.4882V53.9882H39.75V44.4882C39.75 41.8648 37.6233 39.7382 35 39.7382Z" fill="#F26440"/>
</g>
<defs>
<clipPath id="clip0_62_11">
<rect width="38" height="38" fill="white" transform="translate(16 16)"/>
</clipPath>
</defs>
</svg>
