<svg width="34" height="34" viewBox="0 0 34 34" fill="none" xmlns="http://www.w3.org/2000/svg">
<g clip-path="url(#clip0_32_81)">
<path d="M33.2888 8.76344C32.8978 7.29152 31.7461 6.13127 30.2827 5.73744C27.6321 5.02344 17 5.02344 17 5.02344C17 5.02344 6.36792 5.02344 3.71592 5.73744C2.25392 6.13127 1.10217 7.2901 0.711167 8.76344C0 11.4324 0 16.9999 0 16.9999C0 16.9999 0 22.5674 0.711167 25.2364C1.10217 26.7084 2.25392 27.8686 3.71733 28.2624C6.36792 28.9764 17 28.9764 17 28.9764C17 28.9764 27.6321 28.9764 30.2841 28.2624C31.7461 27.8686 32.8978 26.7098 33.2902 25.2364C34 22.5674 34 16.9999 34 16.9999C34 16.9999 34 11.4324 33.2888 8.76344ZM13.5235 22.056V11.9439L22.4088 16.9999L13.5235 22.056Z" fill="#7D7D7D"/>
</g>
<defs>
<clipPath id="clip0_32_81">
<rect width="34" height="34" fill="white"/>
</clipPath>
</defs>
</svg>
